# xmcd
#
# Track frame offsets:
#	182
#	11810
#	22920
#	40325
#	52322
#
# Disc length: 914 seconds
#
# Revision: 1
# Processed by: cddbd v1.4PL0 Copyright (c) Steve Scherf et al.
# Submitted via: audiograbber 1.80
#
DISCID=3c039005
DTITLE=Beau Davis - Couldn't Get A Hit
DYEAR=1900
DGENRE=
TTITLE0=Couldn't Get A Hit
TTITLE1=If I Could I Would
TTITLE2=Got To Go Back
TTITLE3=Angel Walk
TTITLE4=Imaginary Cow-Boy
EXTD=
EXTT0=
EXTT1=
EXTT2=
EXTT3=
EXTT4=
PLAYORDER=
